<svg xmlns="http://www.w3.org/2000/svg" version="1.1" xmlns:xlink="http://www.w3.org/1999/xlink" xmlns:svgjs="http://svgjs.dev/svgjs" width="352" height="352"><svg width="352" height="352" viewBox="0 0 352 352" fill="none" xmlns="http://www.w3.org/2000/svg">
<path d="M140.683 120.428C139.723 96.2376 133.583 68.7376 124.993 47.1176C116.403 25.5076 103.553 9.23761 80.7026 2.40761C57.8626 -4.43239 31.8826 3.70761 15.9326 21.6776C-0.0274048 39.6376 -4.84741 67.0676 5.37259 88.7376C15.6026 110.398 32.7526 121.108 55.0026 128.108C77.2526 135.098 105.063 139.628 128.683 142.428C152.303 145.228 174.683 130.398 190.433 115.178C206.183 99.9676 232.233 85.6876 248.933 106.178C265.623 126.668 248.393 150.648 226.903 158.648C205.423 166.658 173.313 167.798 150.683 171.428C128.063 175.058 106.293 183.108 93.9926 203.738C81.6826 224.358 84.8326 252.368 99.9326 271.178C115.033 289.988 146.873 291.188 167.613 284.358C188.343 277.518 207.933 263.948 225.933 253.678C243.943 243.418 274.243 228.928 287.763 251.348C301.273 273.778 278.413 293.158 259.913 304.658C241.413 316.158 216.853 325.718 193.683 327.428C170.513 329.138 138.803 326.818 117.913 317.198C97.0226 307.578 81.6426 297.518 65.9326 280.178C50.2126 262.848 40.2626 246.708 32.6626 224.448C25.0526 202.198 21.8826 171.318 27.6826 147.428C20.0726 145.478 12.8926 141.978 4.68259 142.428C0.692595 171.508 2.0126 209.858 12.3626 235.748C22.7126 261.638 32.9726 280.198 52.4326 299.678C71.9026 319.158 90.5526 331.518 116.003 341.108C141.453 350.698 180.273 354.668 208.013 349.758C235.753 344.838 257.973 333.498 280.933 317.678C303.893 301.858 320.163 278.318 312.003 250.108C303.853 221.898 270.933 209.758 245.703 220.448C220.483 231.148 198.573 241.618 175.763 255.508C152.943 269.388 115.493 272.308 110.013 239.098C104.533 205.888 139.563 193.488 166.683 191.428C193.793 189.358 227.713 187.718 250.983 171.728C274.253 155.748 285.883 126.218 272.603 100.508C259.323 74.7976 227.083 65.6776 203.383 79.1276C179.673 92.5676 165.103 109.598 140.683 120.428ZM68.6826 22.4276C77.5326 23.6876 86.4326 29.2476 92.9326 36.1776C99.4226 43.1076 102.323 52.8676 105.663 61.4476C108.993 70.0376 111.113 83.0776 113.613 91.4976C116.113 99.9176 121.033 119.748 110.003 117.108C98.9826 114.458 88.7626 113.258 78.4626 110.648C68.1626 108.038 58.8226 105.658 49.6126 101.498C40.3926 97.3476 34.3326 92.5376 28.7626 84.3476C23.1926 76.1576 21.3926 63.2576 24.0126 53.7576C26.6326 44.2576 31.5626 37.0976 39.4326 31.1776C47.2926 25.2476 58.2926 20.9476 68.6826 22.4276Z" fill="#FA4C3A"></path>
<path d="M342.683 232.428C361.563 173.148 348.033 104.798 305.933 59.1776C263.823 13.5576 201.543 -6.10238 140.683 5.42762C142.753 12.9976 145.123 20.4876 145.683 28.4276C199.473 18.3776 254.533 35.4576 290.433 76.6776C326.343 117.898 337.433 175.608 320.683 227.428C328.383 227.758 335.413 230.628 342.683 232.428Z" fill="#FA4C3A"></path>
<path d="M66.6826 47.4276C46.6626 43.6676 40.1526 74.6676 60.0126 79.0976C79.8726 83.5276 86.1626 51.0876 66.6826 47.4276Z" fill="#FA4C3A"></path>
</svg><style>@media (prefers-color-scheme: light) { :root { filter: none; } }
@media (prefers-color-scheme: dark) { :root { filter: none; } }
</style></svg>